<?xml version="1.0" encoding="UTF-8" standalone="no"?>
<!-- Created with Inkscape (http://www.inkscape.org/) -->

<svg
   xmlns:dc="http://purl.org/dc/elements/1.1/"
   xmlns:cc="http://creativecommons.org/ns#"
   xmlns:rdf="http://www.w3.org/1999/02/22-rdf-syntax-ns#"
   xmlns:svg="http://www.w3.org/2000/svg"
   xmlns="http://www.w3.org/2000/svg"
   xmlns:sodipodi="http://sodipodi.sourceforge.net/DTD/sodipodi-0.dtd"
   xmlns:inkscape="http://www.inkscape.org/namespaces/inkscape"
   id="svg3023"
   version="1.1"
   inkscape:version="0.48.3.1 r9886"
   width="353.68125"
   height="247.3825"
   xml:space="preserve"
   sodipodi:docname="card_back.pdf"><metadata
     id="metadata3029"><rdf:RDF><cc:Work
         rdf:about=""><dc:format>image/svg+xml</dc:format><dc:type
           rdf:resource="http://purl.org/dc/dcmitype/StillImage" /><dc:title></dc:title></cc:Work></rdf:RDF></metadata><defs
     id="defs3027"><clipPath
       clipPathUnits="userSpaceOnUse"
       id="clipPath3037"><path
         d="m 0,0 282.945,0 0,197.906 L 0,197.906 0,0 z"
         id="path3039" /></clipPath></defs><sodipodi:namedview
     pagecolor="#ffffff"
     bordercolor="#666666"
     borderopacity="1"
     objecttolerance="10"
     gridtolerance="10"
     guidetolerance="10"
     inkscape:pageopacity="0"
     inkscape:pageshadow="2"
     inkscape:window-width="1440"
     inkscape:window-height="886"
     id="namedview3025"
     showgrid="false"
     inkscape:zoom="1.6851332"
     inkscape:cx="248.53426"
     inkscape:cy="139.05146"
     inkscape:window-x="0"
     inkscape:window-y="14"
     inkscape:window-maximized="0"
     inkscape:current-layer="g3031" /><g
     id="g3031"
     inkscape:groupmode="layer"
     inkscape:label="85x55_Bus_Card"
     transform="matrix(1.25,0,0,-1.25,0,247.3825)"><g
       id="g3033"><g
         id="g3035"
         clip-path="url(#clipPath3037)"><g
           id="g3041"
           transform="translate(15,176.9055)"><path
             d="m 0,0 -15,0 m 267.945,0 15,0 M 0,-155.906 l -15,0 m 267.945,0 15,0 M 6,6 6,21 m 0,-182.906 0,-15 M 246.945,6 l 0,15 m 0,-182.906 0,-15"
             style="fill:none;stroke:#ffffff;stroke-opacity:1;stroke-width:1.25;stroke-linecap:butt;stroke-linejoin:miter;stroke-miterlimit:10;stroke-dasharray:none"
             id="path3043" /></g><g
           id="g3045"
           transform="translate(15,176.9055)"><path
             d="m 0,0 -15,0 m 267.945,0 15,0 M 0,-155.906 l -15,0 m 267.945,0 15,0 M 6,6 6,21 m 0,-182.906 0,-15 M 246.945,6 l 0,15 m 0,-182.906 0,-15"
             style="fill:none;stroke:#000000;stroke-opacity:1;stroke-width:0.25;stroke-linecap:butt;stroke-linejoin:miter;stroke-miterlimit:10;stroke-dasharray:none"
             id="path3047" /></g></g></g><text
       xml:space="preserve"
       style="font-size:16.86546135px;font-style:normal;font-weight:normal;line-height:125%;letter-spacing:0px;word-spacing:0px;fill:#000000;fill-opacity:1;stroke:none;font-family:Sans"
       x="29.088243"
       y="-116.70016"
       id="text3969"
       sodipodi:linespacing="125%"
       transform="scale(1,-1)"><tspan
         sodipodi:role="line"
         x="29.088243"
         y="-116.70016"
         style="font-style:normal;font-variant:normal;font-weight:normal;font-stretch:normal;font-family:DejaVu Sans;-inkscape-font-specification:DejaVu Sans"
         id="tspan3406">kaspar@monostable.co.uk</tspan></text>
</g></svg>