<?xml version="1.0" encoding="UTF-8" standalone="no"?>
<!-- Created with Inkscape (http://www.inkscape.org/) -->

<svg
   xmlns:dc="http://purl.org/dc/elements/1.1/"
   xmlns:cc="http://creativecommons.org/ns#"
   xmlns:rdf="http://www.w3.org/1999/02/22-rdf-syntax-ns#"
   xmlns:svg="http://www.w3.org/2000/svg"
   xmlns="http://www.w3.org/2000/svg"
   xmlns:sodipodi="http://sodipodi.sourceforge.net/DTD/sodipodi-0.dtd"
   xmlns:inkscape="http://www.inkscape.org/namespaces/inkscape"
   id="svg3023"
   version="1.1"
   inkscape:version="0.48.3.1 r9886"
   width="353.68125"
   height="247.3825"
   xml:space="preserve"
   sodipodi:docname="85x55_Bus_Card.pdf"><metadata
     id="metadata3029"><rdf:RDF><cc:Work
         rdf:about=""><dc:format>image/svg+xml</dc:format><dc:type
           rdf:resource="http://purl.org/dc/dcmitype/StillImage" /><dc:title></dc:title></cc:Work></rdf:RDF></metadata><defs
     id="defs3027"><clipPath
       clipPathUnits="userSpaceOnUse"
       id="clipPath3037"><path
         d="m 0,0 282.945,0 0,197.906 L 0,197.906 0,0 z"
         id="path3039" /></clipPath></defs><sodipodi:namedview
     pagecolor="#ffffff"
     bordercolor="#666666"
     borderopacity="1"
     objecttolerance="10"
     gridtolerance="10"
     guidetolerance="10"
     inkscape:pageopacity="0"
     inkscape:pageshadow="2"
     inkscape:window-width="1440"
     inkscape:window-height="886"
     id="namedview3025"
     showgrid="false"
     inkscape:zoom="0.84256659"
     inkscape:cx="166.21546"
     inkscape:cy="67.906263"
     inkscape:window-x="0"
     inkscape:window-y="14"
     inkscape:window-maximized="0"
     inkscape:current-layer="g3223" /><g
     id="g3031"
     inkscape:groupmode="layer"
     inkscape:label="85x55_Bus_Card"
     transform="matrix(1.25,0,0,-1.25,0,247.3825)"><g
       id="g3033"><g
         id="g3035"
         clip-path="url(#clipPath3037)"><g
           id="g3041"
           transform="translate(15,176.9055)"><path
             d="m 0,0 -15,0 m 267.945,0 15,0 M 0,-155.906 l -15,0 m 267.945,0 15,0 M 6,6 6,21 m 0,-182.906 0,-15 M 246.945,6 l 0,15 m 0,-182.906 0,-15"
             style="fill:none;stroke:#ffffff;stroke-opacity:1;stroke-width:1.25;stroke-linecap:butt;stroke-linejoin:miter;stroke-miterlimit:10;stroke-dasharray:none"
             id="path3043" /></g><g
           id="g3045"
           transform="translate(15,176.9055)"><path
             d="m 0,0 -15,0 m 267.945,0 15,0 M 0,-155.906 l -15,0 m 267.945,0 15,0 M 6,6 6,21 m 0,-182.906 0,-15 M 246.945,6 l 0,15 m 0,-182.906 0,-15"
             style="fill:none;stroke:#000000;stroke-opacity:1;stroke-width:0.25;stroke-linecap:butt;stroke-linejoin:miter;stroke-miterlimit:10;stroke-dasharray:none"
             id="path3047" /></g></g></g><text
       xml:space="preserve"
       style="font-size:38.92509842px;font-style:normal;font-weight:normal;line-height:125%;letter-spacing:0px;word-spacing:0px;fill:#000000;fill-opacity:1;stroke:none;font-family:Sans"
       x="26.170195"
       y="-56.691235"
       id="text3969"
       sodipodi:linespacing="125%"
       transform="scale(1,-1)"><tspan
         sodipodi:role="line"
         id="tspan3971"
         x="26.170195"
         y="-56.691235"
         style="font-style:normal;font-variant:normal;font-weight:normal;font-stretch:normal;font-family:DejaVu Sans;-inkscape-font-specification:DejaVu Sans">monostable</tspan></text>
<g
       transform="matrix(0.41150568,0,0,-0.41150568,9.2252451,329.84215)"
       id="g3223"><g
         id="g3335"
         transform="translate(1.0013383,0)"><rect
           style="fill:#ffffff;stroke:none"
           id="rect2985"
           width="66.963036"
           height="77.379509"
           x="263.52484"
           y="426.52734"
           rx="2.0832944" /><rect
           style="fill:#ffffff;stroke:none"
           id="rect2987"
           width="145.08659"
           height="101.93262"
           x="155.084"
           y="442.38547"
           rx="2.0832944" /><rect
           style="fill:#ffffff;stroke:none"
           id="rect2989"
           width="100.44455"
           height="78.867577"
           x="265.54544"
           y="468.93726"
           rx="2.0832944" /><rect
           style="fill:#ffffff;stroke:none"
           id="rect2991"
           width="64.730934"
           height="78.867577"
           x="238.22772"
           y="437.68784"
           rx="2.0832944" /><rect
           style="fill:#ffffff;stroke:none"
           id="rect2993"
           width="132.438"
           height="87.051941"
           x="249.38821"
           y="423.55124"
           rx="2.0832944" /><rect
           style="fill:#ffffff;stroke:none"
           id="rect2995"
           width="80.659424"
           height="49.850262"
           x="244.92403"
           y="433.96771"
           rx="2.0832944" /><text
           xml:space="preserve"
           style="font-size:94.56279755px;font-style:normal;font-weight:normal;line-height:125%;letter-spacing:0px;word-spacing:0px;fill:#000000;fill-opacity:1;stroke:none;font-family:Sans"
           x="243.79417"
           y="529.18237"
           id="text3969-2"
           sodipodi:linespacing="125%"><tspan
             sodipodi:role="line"
             id="tspan3971-3"
             x="243.79417"
             y="529.18237"
             style="font-style:normal;font-variant:normal;font-weight:normal;font-stretch:normal;font-family:DejaVu Sans;-inkscape-font-specification:DejaVu Sans">o o</tspan></text>
<path
           style="fill:none;stroke:#000000;stroke-width:10.41647148;stroke-linecap:butt;stroke-linejoin:miter;stroke-miterlimit:4;stroke-opacity:1;stroke-dasharray:none"
           d="m 155.73288,575.77579 7.41372,-148.79846 c 0,0 4.24764,-92.74784 14.43161,-0.5806 10.18398,92.16712 17.37488,11.93773 18.51528,0.40126 0.96769,-9.78145 6.37821,-26.96682 13.13663,0.27235 6.71894,27.08019 14.13671,-0.55811 15.06669,-0.93009 0.9301,-0.37197 6.20864,-18.40258 15.9968,1.11603 8.16452,16.28088 11.11395,4.23169 13.81108,-0.41854 2.69714,-4.65012 10.02721,-9.35868 16.7873,0.0927 4.12961,7.34737 11.02126,2.84717 13.34361,0.15281 1.5784,-2.69435 9.36232,-6.11666 16.1122,-0.39458 5.93561,5.03183 13.6788,0.55902 14.92836,-0.13157 1.18342,-0.49319 5.44615,-2.22633 5.41656,-1.75395"
           id="path4069-9"
           inkscape:connector-curvature="0"
           sodipodi:nodetypes="ccscscssccscc" /><path
           style="fill:none;stroke:#000000;stroke-width:10.41647148;stroke-linecap:butt;stroke-linejoin:miter;stroke-miterlimit:4;stroke-opacity:1;stroke-dasharray:none"
           d="m 485.01257,575.75845 -7.41371,-148.79846 c 0,0 -4.24763,-92.74783 -14.43161,-0.58059 -10.18398,92.16712 -17.37488,11.93773 -18.51528,0.40126 -0.96768,-9.78146 -6.3782,-26.96683 -13.13663,0.27235 -6.71893,27.08018 -14.13671,-0.55812 -15.0667,-0.93009 -0.93008,-0.37196 -6.20863,-18.40257 -15.99678,1.11602 -8.16453,16.28089 -11.11396,4.2317 -13.8111,-0.41853 -2.69713,-4.65012 -10.0272,-9.35869 -16.78728,0.0927 -4.12961,7.34737 -11.02126,2.84717 -13.34361,0.1528 -1.57841,-2.69435 -9.36233,-6.11665 -16.1122,-0.39456 -5.93562,5.03182 -13.46297,0.51251 -14.71253,-0.17808 -1.18342,-0.49319 -4.01577,-1.93604 -5.66032,-1.74267"
           id="path4069-7-1"
           inkscape:connector-curvature="0"
           sodipodi:nodetypes="ccscscssccscc" /><path
           style="fill:none;stroke:#000000;stroke-width:1.0416472px;stroke-linecap:butt;stroke-linejoin:miter;stroke-opacity:1"
           d="m 317.03061,421.50533 c 2.48525,-1.28267 4.60026,0.21217 6.78929,0.51152"
           id="path4113-8"
           inkscape:connector-curvature="0" /><rect
           style="fill:#000000;stroke:#000000;stroke-width:4.13075399;stroke-miterlimit:4;stroke-dasharray:none"
           id="rect4177"
           width="225.17563"
           height="5.1943703"
           x="210.76945"
           y="542.58667"
           rx="5.5510114e-15" /></g></g><text
       xml:space="preserve"
       style="font-size:17.14575005px;font-style:normal;font-weight:normal;line-height:125%;letter-spacing:0px;word-spacing:0px;fill:#000000;fill-opacity:1;stroke:none;font-family:Sans"
       x="20.121107"
       y="-39.106186"
       id="text4234"
       sodipodi:linespacing="125%"
       transform="scale(1,-1)"><tspan
         sodipodi:role="line"
         id="tspan4236"
         x="20.121107"
         y="-39.106186">hardware &amp; software design </tspan></text>
</g></svg>