<?xml version="1.0" encoding="UTF-8" standalone="no"?>
<!-- Created with Inkscape (http://www.inkscape.org/) -->

<svg
   xmlns:dc="http://purl.org/dc/elements/1.1/"
   xmlns:cc="http://creativecommons.org/ns#"
   xmlns:rdf="http://www.w3.org/1999/02/22-rdf-syntax-ns#"
   xmlns:svg="http://www.w3.org/2000/svg"
   xmlns="http://www.w3.org/2000/svg"
   xmlns:sodipodi="http://sodipodi.sourceforge.net/DTD/sodipodi-0.dtd"
   xmlns:inkscape="http://www.inkscape.org/namespaces/inkscape"
   width="744.09448819"
   height="1052.3622047"
   id="svg2"
   version="1.1"
   inkscape:version="0.48.3.1 r9886"
   inkscape:export-filename="/home/kaspar/monostable/logo2.png"
   inkscape:export-xdpi="90"
   inkscape:export-ydpi="90"
   sodipodi:docname="New document 1">
  <defs
     id="defs4">
    <inkscape:path-effect
       effect="spiro"
       id="path-effect3844"
       is_visible="true" />
  </defs>
  <sodipodi:namedview
     id="base"
     pagecolor="#ffffff"
     bordercolor="#666666"
     borderopacity="1.0"
     inkscape:pageopacity="0.0"
     inkscape:pageshadow="2"
     inkscape:zoom="0.49497475"
     inkscape:cx="443.8192"
     inkscape:cy="388.93595"
     inkscape:document-units="px"
     inkscape:current-layer="layer1"
     showgrid="false"
     inkscape:window-width="1280"
     inkscape:window-height="786"
     inkscape:window-x="0"
     inkscape:window-y="14"
     inkscape:window-maximized="0" />
  <metadata
     id="metadata7">
    <rdf:RDF>
      <cc:Work
         rdf:about="">
        <dc:format>image/svg+xml</dc:format>
        <dc:type
           rdf:resource="http://purl.org/dc/dcmitype/StillImage" />
        <dc:title></dc:title>
      </cc:Work>
    </rdf:RDF>
  </metadata>
  <g
     inkscape:label="Layer 1"
     inkscape:groupmode="layer"
     id="layer1">
    <rect
       style="fill:#ffffff;stroke:none"
       id="rect2985"
       width="64.285713"
       height="74.285713"
       x="252.67661"
       y="320.70953"
       rx="2" />
    <rect
       style="fill:#ffffff;stroke:none"
       id="rect2987"
       width="139.28572"
       height="97.85714"
       x="148.57143"
       y="335.93362"
       rx="2" />
    <rect
       style="fill:#ffffff;stroke:none"
       id="rect2989"
       width="96.428574"
       height="75.714287"
       x="254.61641"
       y="361.42383"
       rx="2" />
    <rect
       style="fill:#ffffff;stroke:none"
       id="rect2991"
       width="62.142857"
       height="75.714287"
       x="228.3909"
       y="331.42383"
       rx="2" />
    <rect
       style="fill:#ffffff;stroke:none"
       id="rect2993"
       width="127.14286"
       height="83.571426"
       x="239.10518"
       y="317.85242"
       rx="2" />
    <rect
       style="fill:#ffffff;stroke:none"
       id="rect2995"
       width="77.434486"
       height="47.857143"
       x="234.81947"
       y="327.85242"
       rx="2" />
    <text
       xml:space="preserve"
       style="font-size:47.18601227px;font-style:normal;font-weight:normal;line-height:125%;letter-spacing:0px;word-spacing:0px;fill:#000000;fill-opacity:1;stroke:none;font-family:Sans"
       x="254.03343"
       y="552.62366"
       id="text3969"
       sodipodi:linespacing="125%"><tspan
         sodipodi:role="line"
         id="tspan3971"
         x="254.03343"
         y="552.62366"
         style="font-style:normal;font-variant:normal;font-weight:normal;font-stretch:normal;font-family:DejaVu Sans;-inkscape-font-specification:DejaVu Sans">monostable</tspan></text>
    <path
       style="fill:none;stroke:#000000;stroke-width:10;stroke-linecap:butt;stroke-linejoin:miter;stroke-miterlimit:4;stroke-opacity:1;stroke-dasharray:none"
       d="m 233.87738,609.34883 7.1173,-142.8492 c 0,0 4.0778,-89.03958 13.8546,-0.55738 9.7768,88.4821 16.6802,11.46043 17.775,0.38522 0.929,-9.39038 6.1232,-25.88864 12.6114,0.26146 6.4503,25.99746 13.5715,-0.5358 14.4643,-0.8929 0.8929,-0.3571 5.9604,-17.66681 15.3572,1.0714 7.8381,15.62994 10.6696,4.0625 13.2589,-0.4018 2.5893,-4.4642 9.6263,-8.98451 16.1161,0.089 3.9645,7.0536 10.5806,2.73333 12.8101,0.1467 1.5153,-2.58663 8.988,-5.8721 15.468,-0.3788 5.6983,4.83064 13.1319,0.53667 14.3315,-0.12631 1.1361,-0.47347 5.2284,-2.13732 5.2,-1.68383"
       id="path4069"
       inkscape:connector-curvature="0"
       sodipodi:nodetypes="ccscscssccscc" />
    <path
       style="fill:none;stroke:#000000;stroke-width:10;stroke-linecap:butt;stroke-linejoin:miter;stroke-miterlimit:4;stroke-opacity:1;stroke-dasharray:none"
       d="m 549.99178,609.33219 -7.1173,-142.8492 c 0,0 -4.0778,-89.03958 -13.8546,-0.55738 -9.7768,88.4821 -16.6802,11.46043 -17.775,0.38522 -0.929,-9.39038 -6.1232,-25.88864 -12.6114,0.26146 -6.4503,25.99746 -13.5715,-0.5358 -14.4643,-0.8929 -0.8929,-0.3571 -5.9604,-17.66681 -15.3572,1.0714 -7.8381,15.62994 -10.6696,4.0625 -13.2589,-0.4018 -2.5893,-4.4642 -9.6263,-8.98451 -16.1161,0.089 -3.9645,7.0536 -10.5806,2.73333 -12.8101,0.1467 -1.5153,-2.58663 -8.988,-5.8721 -15.468,-0.3788 -5.6983,4.83064 -12.9247,0.49203 -14.1243,-0.17095 -1.1361,-0.47347 -3.8552,-1.85864 -5.434,-1.673"
       id="path4069-7"
       inkscape:connector-curvature="0"
       sodipodi:nodetypes="ccscscssccscc" />
    <path
       style="fill:none;stroke:#000000;stroke-width:1px;stroke-linecap:butt;stroke-linejoin:miter;stroke-opacity:1"
       d="m 388.72608,461.24642 c 2.38589,-1.23139 4.41634,0.20368 6.51785,0.49107"
       id="path4113"
       inkscape:connector-curvature="0" />
    <text
       xml:space="preserve"
       style="font-size:90.78197479px;font-style:normal;font-weight:normal;line-height:125%;letter-spacing:0px;word-spacing:0px;fill:#000000;fill-opacity:1;stroke:none;font-family:Sans"
       x="365.05463"
       y="813.21973"
       id="text3969-2"
       sodipodi:linespacing="125%"><tspan
         sodipodi:role="line"
         id="tspan3971-3"
         x="365.05463"
         y="813.21973"
         style="font-style:normal;font-variant:normal;font-weight:normal;font-stretch:normal;font-family:DejaVu Sans;-inkscape-font-specification:DejaVu Sans">o o</tspan></text>
    <path
       style="fill:none;stroke:#000000;stroke-width:10;stroke-linecap:butt;stroke-linejoin:miter;stroke-miterlimit:4;stroke-opacity:1;stroke-dasharray:none"
       d="m 280.51423,857.95022 7.1173,-142.84919 c 0,0 4.0778,-89.03958 13.8546,-0.55738 9.7768,88.48209 16.6802,11.46043 17.775,0.38522 0.929,-9.39038 6.1232,-25.88864 12.6114,0.26146 6.4503,25.99746 13.5715,-0.5358 14.4643,-0.8929 0.8929,-0.3571 5.9604,-17.66681 15.3572,1.0714 7.8381,15.62994 10.6696,4.0625 13.2589,-0.4018 2.5893,-4.4642 9.6263,-8.98451 16.1161,0.089 3.9645,7.0536 10.5806,2.73333 12.8101,0.1467 1.5153,-2.58663 8.988,-5.8721 15.468,-0.3788 5.6983,4.83064 13.1319,0.53667 14.3315,-0.12631 1.1361,-0.47347 5.2284,-2.13732 5.2,-1.68383"
       id="path4069-9"
       inkscape:connector-curvature="0"
       sodipodi:nodetypes="ccscscssccscc" />
    <path
       style="fill:none;stroke:#000000;stroke-width:10;stroke-linecap:butt;stroke-linejoin:miter;stroke-miterlimit:4;stroke-opacity:1;stroke-dasharray:none"
       d="m 596.62863,857.93358 -7.1173,-142.84919 c 0,0 -4.0778,-89.03958 -13.8546,-0.55738 -9.7768,88.48209 -16.6802,11.46043 -17.775,0.38522 -0.929,-9.39038 -6.1232,-25.88864 -12.6114,0.26146 -6.4503,25.99746 -13.5715,-0.5358 -14.4643,-0.8929 -0.8929,-0.3571 -5.9604,-17.66681 -15.3572,1.0714 -7.8381,15.62994 -10.6696,4.0625 -13.2589,-0.4018 -2.5893,-4.4642 -9.6263,-8.98451 -16.1161,0.089 -3.9645,7.0536 -10.5806,2.73333 -12.8101,0.1467 -1.5153,-2.58663 -8.988,-5.8721 -15.468,-0.3788 -5.6983,4.83064 -12.9247,0.49203 -14.1243,-0.17095 -1.1361,-0.47347 -3.8552,-1.85864 -5.434,-1.673"
       id="path4069-7-1"
       inkscape:connector-curvature="0"
       sodipodi:nodetypes="ccscscssccscc" />
    <path
       style="fill:none;stroke:#000000;stroke-width:1px;stroke-linecap:butt;stroke-linejoin:miter;stroke-opacity:1"
       d="m 435.36293,709.84782 c 2.38589,-1.23139 4.41634,0.20368 6.51785,0.49107"
       id="path4113-8"
       inkscape:connector-curvature="0" />
    <rect
       style="fill:#000000;stroke:#000000;stroke-width:3.96559787;stroke-miterlimit:4;stroke-dasharray:none"
       id="rect4177"
       width="216.17264"
       height="4.9866886"
       x="333.35031"
       y="826.08807"
       rx="5.3290705e-15" />
  </g>
</svg>
