<?xml version="1.0" encoding="UTF-8" standalone="no"?>
<!-- Created with Inkscape (http://www.inkscape.org/) -->

<svg
   xmlns:dc="http://purl.org/dc/elements/1.1/"
   xmlns:cc="http://creativecommons.org/ns#"
   xmlns:rdf="http://www.w3.org/1999/02/22-rdf-syntax-ns#"
   xmlns:svg="http://www.w3.org/2000/svg"
   xmlns="http://www.w3.org/2000/svg"
   xmlns:sodipodi="http://sodipodi.sourceforge.net/DTD/sodipodi-0.dtd"
   xmlns:inkscape="http://www.inkscape.org/namespaces/inkscape"
   width="744.0944824"
   height="1052.362183"
   id="svg2"
   version="1.1"
   inkscape:version="0.91+devel r"
   inkscape:export-filename="/home/kaspar/monostable/logo2.png"
   inkscape:export-xdpi="90"
   inkscape:export-ydpi="90"
   sodipodi:docname="logo2.svg"
   viewBox="0 0 744.0944824 1052.362183">
  <defs
     id="defs4">
    <inkscape:path-effect
       effect="spiro"
       id="path-effect3844"
       is_visible="true" />
  </defs>
  <sodipodi:namedview
     id="base"
     pagecolor="#ffffff"
     bordercolor="#666666"
     borderopacity="1.0"
     inkscape:pageopacity="0.0"
     inkscape:pageshadow="2"
     inkscape:zoom="0.9899494995"
     inkscape:cx="271.9363144"
     inkscape:cy="768.114741"
     inkscape:document-units="px"
     inkscape:current-layer="g3223"
     showgrid="false"
     inkscape:window-width="1280"
     inkscape:window-height="786"
     inkscape:window-x="0"
     inkscape:window-y="14"
     inkscape:window-maximized="0" />
  <metadata
     id="metadata7">
    <rdf:RDF>
      <cc:Work
         rdf:about="">
        <dc:format>image/svg+xml</dc:format>
        <dc:type
           rdf:resource="http://purl.org/dc/dcmitype/StillImage" />
        <dc:title />
      </cc:Work>
    </rdf:RDF>
  </metadata>
  <g
     inkscape:label="Layer 1"
     inkscape:groupmode="layer"
     id="layer1">
    <text
       xml:space="preserve"
       style="font-style:normal;font-weight:normal;font-size:90.8098983765px;line-height:125%;font-family:Sans;letter-spacing:0px;word-spacing:0px;fill:#000000;fill-opacity:1;stroke:none"
       x="58.19883"
       y="640.4585"
       id="text3969"
       sodipodi:linespacing="125%"><tspan
         sodipodi:role="line"
         id="tspan3971"
         x="58.19883"
         y="640.4585"
         style="font-style:normal;font-variant:normal;font-weight:normal;font-stretch:normal;font-family:'DejaVu Sans';-inkscape-font-specification:'DejaVu Sans'">monostable</tspan></text>
    <g
       id="g3223">
      <path
         style="fill:#ffffff;stroke:none"
         d="m 274.6171265,412.6878052 h 60.2857132 c 1.108,0 2,0.892 2,2 v 70.2857132 c 0,1.108 -0.892,2 -2,2 h -60.2857132 c -1.108,0 -2,-0.892 -2,-2 v -70.2857132 c 0,-1.108 0.892,-2 2,-2 z"
         id="rect2985" />
      <path
         style="fill:#ffffff;stroke:none"
         d="m 276.5569458,453.4020996 h 92.4285736 c 1.108,0 2,0.892 2,2 v 71.7142868 c 0,1.108 -0.892,2 -2,2 h -92.4285736 c -1.108,0 -2,-0.892 -2,-2 v -71.7142868 c 0,-1.108 0.892,-2 2,-2 z"
         id="rect2989" />
      <path
         style="fill:#ffffff;stroke:none"
         d="m 250.3314209,423.4020996 h 58.1428566 c 1.108,0 2,0.892 2,2 v 71.7142868 c 0,1.108 -0.892,2 -2,2 h -58.1428566 c -1.108,0 -2,-0.892 -2,-2 v -71.7142868 c 0,-1.108 0.892,-2 2,-2 z"
         id="rect2991" />
      <path
         inkscape:connector-curvature="0"
         id="path4113"
         d="m 408.6666,553.22468 c 2.38589,-1.23139 4.41634,0.20368 6.51785,0.49107"
         style="fill:none;stroke:#000000;stroke-width:1px;stroke-linecap:butt;stroke-linejoin:miter;stroke-opacity:1" />
      <g
         aria-label="o o"
         style="font-style:normal;font-weight:normal;font-size:90.7819747925px;line-height:125%;font-family:Sans;letter-spacing:0px;word-spacing:0px;fill:#000000;fill-opacity:1;stroke:none"
         id="text3969-2">
        <path
           d="m 281.4684378,467.310303 q -6.5604161,0 -10.3725498,5.1419478 -3.8121337,5.0976206 -3.8121337,14.007375 0,8.9097543 3.7678065,14.0517021 3.8121338,5.0976207 10.416877,5.0976207 6.5160891,0 10.3282228,-5.1419478 3.8121337,-5.1419478 3.8121337,-14.007375 0,-8.8211001 -3.8121337,-13.9630479 -3.8121337,-5.1862749 -10.3282228,-5.1862749 z m 0,-6.9150333 q 10.6385127,0 16.7113304,6.9150333 6.0728176,6.9150332 6.0728176,19.1493228 0,12.1899624 -6.0728176,19.1493228 -6.0728177,6.9150332 -16.7113304,6.9150332 -10.6828398,0 -16.7556574,-6.9150332 -6.0284905,-6.9593604 -6.0284905,-19.1493228 0,-12.2342896 6.0284905,-19.1493228 6.0728176,-6.9150333 16.7556574,-6.9150333 z"
           style="font-style:normal;font-variant:normal;font-weight:normal;font-stretch:normal;font-family:'DejaVu Sans';-inkscape-font-specification:'DejaVu Sans'"
           id="path4302" />
        <path
           d="m 365.8673026,467.310303 q -6.5604162,0 -10.3725499,5.1419478 -3.8121337,5.0976206 -3.8121337,14.007375 0,8.9097543 3.7678066,14.0517021 3.8121337,5.0976207 10.416877,5.0976207 6.516089,0 10.3282227,-5.1419478 3.8121337,-5.1419478 3.8121337,-14.007375 0,-8.8211001 -3.8121337,-13.9630479 -3.8121337,-5.1862749 -10.3282227,-5.1862749 z m 0,-6.9150333 q 10.6385127,0 16.7113303,6.9150333 6.0728177,6.9150332 6.0728177,19.1493228 0,12.1899624 -6.0728177,19.1493228 -6.0728176,6.9150332 -16.7113303,6.9150332 -10.6828398,0 -16.7556575,-6.9150332 -6.0284905,-6.9593604 -6.0284905,-19.1493228 0,-12.2342896 6.0284905,-19.1493228 6.0728177,-6.9150333 16.7556575,-6.9150333 z"
           style="font-style:normal;font-variant:normal;font-weight:normal;font-stretch:normal;font-family:'DejaVu Sans';-inkscape-font-specification:'DejaVu Sans'"
           id="path4304" />
      </g>
      <path
         style="color:#000000;font-style:normal;font-variant:normal;font-weight:normal;font-stretch:normal;font-size:medium;line-height:normal;font-family:sans-serif;font-variant-ligatures:normal;font-variant-position:normal;font-variant-caps:normal;font-variant-numeric:normal;font-variant-alternates:normal;font-feature-settings:normal;text-indent:0;text-align:start;text-decoration:none;text-decoration-line:none;text-decoration-style:solid;text-decoration-color:#000000;letter-spacing:normal;word-spacing:normal;text-transform:none;writing-mode:lr-tb;direction:ltr;text-orientation:mixed;baseline-shift:baseline;text-anchor:start;white-space:normal;shape-padding:0;clip-rule:nonzero;display:inline;overflow:visible;visibility:visible;opacity:1;isolation:auto;mix-blend-mode:normal;color-interpolation:sRGB;color-interpolation-filters:linearRGB;solid-color:#000000;solid-opacity:1;fill:#000000;fill-opacity:1;fill-rule:nonzero;stroke:none;stroke-width:10;stroke-linecap:butt;stroke-linejoin:miter;stroke-miterlimit:4;stroke-dasharray:none;stroke-dashoffset:0;stroke-opacity:1;color-rendering:auto;image-rendering:auto;shape-rendering:auto;text-rendering:auto;enable-background:accumulate"
         d="M 472.2246094 368.4121094 C 472.016138 368.415112 471.8063476 368.4272872 471.5996094 368.4492188 C 470.7726565 368.5369447 469.9787292 368.7704144 469.3828125 369.1035156 C 466.9991457 370.4359204 466.5910043 371.890867 465.9726562 373.3320312 C 463.4992641 379.0966884 461.7670143 389.7468439 459.3085938 411.9960938 C 457.8453662 425.2386085 456.3893344 434.4215712 455.1132812 440.7675781 C 454.4502683 437.2057565 453.8297242 433.2497529 453.3261719 429.3457031 C 452.3865514 422.0608101 451.7574222 415.2609268 451.4785156 412.4394531 C 451.2154466 409.7803382 450.6818675 406.7690352 449.8515625 403.9296875 C 449.0212575 401.0903398 448.2967841 398.4522899 445.6503906 396.0390625 C 444.3271939 394.8324488 441.7918566 393.7183576 439.3789062 394.2675781 C 436.965956 394.8167986 435.4973339 396.3517942 434.3964844 397.8964844 C 432.1947853 400.9858647 430.728253 405.1801524 429.0390625 411.9882812 C 428.4406142 414.4002832 427.8070954 415.8072215 427.2363281 417.1152344 C 426.7159876 416.1290284 426.2165339 415.3829747 425.7675781 414.3125 C 425.3491785 413.3148823 424.9879579 412.386692 424.6621094 411.5976562 C 424.4991851 411.2031384 424.3548835 410.856511 424.1464844 410.4355469 C 424.0422848 410.2250648 423.9352176 410.0030553 423.6914062 409.6367188 C 423.5631436 409.4439987 423.4696495 409.1451956 423.1347656 408.7832031 C 422.9331597 408.3830976 422.7114144 407.932799 422.3691406 407.3007812 C 421.4989444 405.693941 420.3372926 403.5791703 418.0488281 401.7597656 C 415.7603637 399.9403609 411.2573905 399.0003143 407.8789062 400.8789062 C 404.5004222 402.7574983 402.1678094 406.0076446 399.5996094 411.1289062 C 398.7489799 412.8251449 397.9814197 414.0253897 397.3632812 414.9023438 C 397.3395552 414.8577917 397.3456966 414.8797214 397.3222656 414.8339844 C 396.6823326 413.5848074 396.0557849 412.0455306 395.1367188 410.4609375 C 393.2232307 407.1619017 389.9968894 403.9522224 385.1542969 403.0253906 C 380.3117043 402.0985589 374.5978918 404.5965943 370.6269531 410.1484375 L 370.46875 410.3710938 L 370.3359375 410.6074219 C 369.1493982 412.718501 369.5120486 412.0341502 368.6894531 411.8574219 C 367.897089 411.6871885 366.2447349 410.5296336 365.75 410.0117188 C 363.6531329 406.9309612 360.6352234 405.6612956 356.8007812 405.0488281 C 352.6917489 404.392501 347.5217958 405.3340882 343.1835938 409.0117188 C 340.2022151 411.5391333 336.5529146 409.2972979 334.7109375 408.2792969 L 334.46875 408.1464844 L 334.2148438 408.0390625 C 333.9375175 407.9234867 332.7940965 407.376764 331.4980469 406.890625 C 330.4903139 406.5126315 329.4265237 406.0180266 327.8066406 405.9550781 C 327.6491004 405.9479999 327.50805 405.9434712 327.3867188 405.9492188 C 327.0390033 405.9521006 326.6751574 405.9683896 326.2734375 406.015625 L 326.2773438 406.0429688 C 326.0260501 406.0873184 325.8343199 406.1394395 325.6425781 406.1875 C 324.9097786 406.3711777 324.297183 406.5857315 323.640625 406.8222656 C 322.3275091 407.2953339 320.9910653 407.8448171 320.375 408.1015625 L 320.1210938 408.2070312 L 319.8808594 408.3398438 C 318.3353792 409.1939805 314.1485366 411.5278768 311.2011719 409.0292969 C 306.8629697 405.3516663 301.6930167 404.408126 297.5839844 405.0644531 C 293.7495422 405.6769206 290.7316327 406.9465862 288.6347656 410.0273438 C 288.1400307 410.5453918 286.4876766 411.7047667 285.6953125 411.875 C 284.872717 412.0517283 285.2353674 412.7360791 284.0488281 410.625 L 283.9140625 410.3867188 L 283.7558594 410.1660156 C 279.7849207 404.6141724 274.0711082 402.1161369 269.2285156 403.0429688 C 264.3859231 403.9698004 261.1615349 407.1775267 259.2480469 410.4765625 C 258.3289807 412.0611556 257.7024331 413.6004324 257.0625 414.8496094 C 257.039099 414.8952904 257.0451814 414.8734708 257.0214844 414.9179688 C 256.4033513 414.0410167 255.6357688 412.8426891 254.7851562 411.1464844 C 252.2169563 406.0252227 249.8843435 402.7731233 246.5058594 400.8945312 C 243.1273752 399.0159392 238.6244019 399.957939 236.3359375 401.7773438 C 234.0474731 403.5967483 232.8858212 405.709566 232.015625 407.3164062 C 231.6732753 407.9485641 231.4516142 408.4006612 231.25 408.8007812 C 230.9151161 409.1627737 230.8216221 409.4615768 230.6933594 409.6542969 C 230.4495481 410.0206335 230.3424809 410.2426429 230.2382812 410.453125 C 230.0298823 410.8740891 229.8855805 411.2207165 229.7226562 411.6152344 C 229.3968077 412.4042701 229.0355871 413.3305073 228.6171875 414.328125 C 228.1679863 415.399185 227.6690385 416.1462527 227.1484375 417.1328125 C 226.5776702 415.8247996 225.9441514 414.4178612 225.3457031 412.0058594 C 223.6565126 405.1977305 222.1899803 401.0034428 219.9882812 397.9140625 C 218.8874317 396.3693723 217.4188097 394.8324236 215.0058594 394.2832031 C 212.592909 393.7339826 210.0575718 394.8500269 208.734375 396.0566406 C 206.0879815 398.4698681 205.3635081 401.1059648 204.5332031 403.9453125 C 203.7028982 406.7846602 203.169319 409.7959632 202.90625 412.4550781 C 202.6273434 415.2765518 201.9982141 422.0783883 201.0585938 429.3632812 C 200.5550267 433.2674447 199.9325663 437.2213078 199.2695312 440.7832031 C 197.9935327 434.4371878 196.5393072 425.2553533 195.0761719 412.0136719 C 192.6177513 389.7644221 190.8855015 379.1142665 188.4121094 373.3496094 C 187.7937613 371.9084451 187.3836668 370.4515454 185 369.1191406 C 184.4040833 368.7860394 183.6121087 368.5525691 182.7851562 368.4648438 C 181.9582035 368.3771178 181.0972695 368.4349058 180.3632812 368.6855469 C 178.8953049 369.1868296 178.0695337 370.0458374 177.5195312 370.734375 C 175.3195219 373.4885252 175.2199545 375.6387631 174.6113281 378.6796875 C 172.1768226 390.8433851 171.2578125 412.890625 171.2578125 412.890625 L 164.140625 555.7207031 L 174.1289062 556.21875 L 181.2460938 413.359375 L 181.2460938 413.3476562 C 181.2460938 413.3476562 181.750953 404.1295915 182.6171875 394.8261719 C 183.43349 400.0891653 184.2567292 405.147229 185.1367188 413.1113281 C 187.5966699 435.3744016 189.6499473 447.0205081 192.21875 453.3808594 C 192.8609507 454.9709472 193.4713074 456.3002696 194.8164062 457.6367188 C 196.1615053 458.9731678 199.460001 460.0502031 201.7128906 459.0820312 C 203.9657802 458.1138595 204.7365469 456.6877293 205.4121094 455.4746094 C 206.0876719 454.2614894 206.5626485 453.0095737 207.0097656 451.6210938 C 208.7982342 446.0671734 210.008358 438.1490839 210.9765625 430.6425781 C 211.944767 423.1360724 212.5889285 416.1555844 212.8574219 413.4394531 C 213.0086621 411.910709 213.4174281 410.1172107 213.8144531 408.4199219 C 214.3961453 410.0729879 215.008259 411.8653689 215.640625 414.4140625 C 217.3528509 421.3150632 218.597222 425.3421339 222.3964844 428.1230469 C 224.2961156 429.5135034 227.3980608 429.9168131 229.484375 429.1035156 C 231.5706892 428.2902181 232.7585547 426.9831049 233.7382812 425.7382812 C 235.6977346 423.2486341 236.886793 420.4630772 237.8378906 418.1953125 C 238.3134395 417.0614302 238.7051675 416.0604412 238.9648438 415.4316406 C 239.0232318 415.2902558 239.0290458 415.2819322 239.0703125 415.1875 C 239.1943443 415.0192641 239.33996 414.8309214 239.4160156 414.7089844 C 239.6557082 414.3246945 239.7899641 414.0583474 239.9335938 413.7792969 C 240.2208529 413.2211958 240.4962246 412.6549228 240.8085938 412.078125 C 241.2906101 411.1880688 241.7774905 410.6149059 242.1582031 410.1699219 C 242.796121 410.7552988 244.107329 412.1624049 245.8457031 415.6289062 C 247.9700848 419.8651317 249.7318393 422.6206831 252.3515625 424.5625 C 253.6614241 425.5334085 255.3656972 426.2851047 257.2128906 426.3066406 C 259.0600841 426.3281766 260.7516584 425.585982 261.8964844 424.734375 C 264.1861363 423.0311611 265.0967831 421.097023 265.9609375 419.4101562 C 266.8250919 417.7232896 267.5228536 416.1416975 267.8984375 415.4941406 C 268.5742494 414.3289764 270.1636925 413.0462301 271.109375 412.8652344 C 272.0488121 412.6854339 273.0931708 412.4743699 275.5761719 415.9238281 C 278.4291244 420.5718086 283.873431 422.4948459 287.7949219 421.6523438 C 291.8288764 420.7856795 294.4742637 418.5895625 296.2871094 416.4863281 L 296.5839844 416.140625 L 296.8144531 415.7480469 C 296.226826 416.7511314 297.5340137 415.1991935 299.1601562 414.9394531 C 300.786299 414.6797128 302.5925772 414.8405801 304.734375 416.65625 C 312.7788667 423.4758354 322.5964675 418.2453408 324.2792969 417.3105469 C 324.8183105 417.0864152 326.0415693 416.5870149 327.03125 416.2304688 C 327.2222166 416.1616704 327.2639306 416.1546752 327.4257812 416.1015625 C 327.5940396 416.1346502 327.7873577 416.1800064 327.984375 416.2539062 C 328.684741 416.5166087 329.4320354 416.8730873 330.234375 417.2128906 C 331.5748058 417.9695177 341.5902778 423.473453 349.6503906 416.640625 C 351.7921885 414.8249555 353.5965137 414.6640878 355.2226562 414.9238281 C 356.848799 415.1835685 358.1579396 416.7355064 357.5703125 415.7324219 L 357.8007812 416.125 L 358.0976562 416.46875 C 359.910502 418.5719844 362.5539361 420.7681015 366.5878906 421.6347656 C 370.5053554 422.4764029 375.9415257 420.557524 378.796875 415.9199219 C 381.2882619 412.4535978 382.3344873 412.6675752 383.2753906 412.8476562 C 384.2210731 413.0286521 385.8105162 414.3133514 386.4863281 415.4785156 C 386.861912 416.1260725 387.5577206 417.7057113 388.421875 419.3925781 C 389.2860294 421.0794449 390.1986293 423.0135829 392.4882812 424.7167969 C 393.6331073 425.5684038 395.3227284 426.3105984 397.1699219 426.2890625 C 399.0171153 426.2675265 400.7233415 425.5177835 402.0332031 424.546875 C 404.6529263 422.6050581 406.4146809 419.8495066 408.5390625 415.6132812 C 410.2776993 412.1462561 411.5888196 410.7374689 412.2265625 410.1523438 C 412.6072592 410.5972665 413.0940803 411.1723051 413.5761719 412.0625 C 413.888541 412.6392978 414.1639126 413.2055708 414.4511719 413.7636719 C 414.5948015 414.0427224 414.7290574 414.3090695 414.96875 414.6933594 C 415.04412 414.8141971 415.1883629 414.9999148 415.3105469 415.1660156 C 415.3521709 415.2611696 415.3582298 415.2713594 415.4179688 415.4160156 C 415.6776448 416.0448162 416.069373 417.0458052 416.5449219 418.1796875 C 417.4960195 420.4474522 418.6870311 423.231056 420.6464844 425.7207031 C 421.626211 426.9655267 422.8121233 428.2745931 424.8984375 429.0878906 C 426.9847517 429.9011881 430.08865 429.4959252 431.9882812 428.1054688 C 435.7875437 425.3245558 437.0319147 421.2974851 438.7441406 414.3964844 C 439.3765066 411.8477907 439.9886203 410.0554097 440.5703125 408.4023438 C 440.9673929 410.0997661 441.3760894 411.894941 441.5273438 413.4238281 C 441.795837 416.1399594 442.4399986 423.1184943 443.4082031 430.625 C 444.3764077 438.1315057 445.5865314 446.0515485 447.375 451.6054688 C 447.8221171 452.9939488 448.2970939 454.2439114 448.9726562 455.4570312 C 449.6482188 456.6701513 450.4189854 458.0962814 452.671875 459.0644531 C 454.9247646 460.0326248 458.2213073 458.9575428 459.5664062 457.6210938 C 460.9115053 456.2846447 461.523815 454.9533692 462.1660156 453.3632812 C 464.7348183 447.00293 466.7880958 435.3587766 469.2480469 413.0957031 C 470.1281505 405.1305708 470.9492336 400.0699763 471.765625 394.8066406 C 472.6319839 404.1107649 473.1367188 413.3320312 473.1367188 413.3320312 L 473.1386719 413.3417969 L 480.2558594 556.2011719 L 490.2421875 555.703125 L 483.1269531 412.875 L 483.125 412.8535156 C 483.12342 412.8157426 482.2058545 390.8153722 479.7734375 378.6621094 C 479.1648111 375.621185 479.0632907 373.4709471 476.8632812 370.7167969 C 476.3132789 370.0282593 475.4894608 369.1712046 474.0214844 368.6699219 C 473.4709931 368.4819408 472.8500234 368.4031015 472.2246094 368.4121094 z M 421.8300781 407.9023438 C 422.31598 408.1462512 422.5799304 408.36563 422.7695312 408.5625 C 422.5244336 408.3526364 422.2914014 408.1395961 421.8300781 407.9023438 z M 232.5546875 407.9199219 C 232.0926879 408.1571732 231.8583404 408.3700643 231.6132812 408.5800781 C 231.8027717 408.3830665 232.068015 408.1638618 232.5546875 407.9199219 z M 415.5117188 415.4453125 C 415.6350615 415.5911992 415.798352 415.7957172 416.0195312 416.0097656 C 415.7560833 415.7642306 415.5749429 415.5948686 415.5117188 415.4453125 z M 238.8710938 415.4628906 C 238.8072472 415.6127078 238.6258235 415.7834252 238.3613281 416.0292969 C 238.5852743 415.8134568 238.7469159 415.609765 238.8710938 415.4628906 z M 325.3984375 415.5195312 L 327.390625 415.5195312 L 327.4414062 415.9472656 C 327.3937809 415.9528656 327.396891 415.9542788 327.3574219 415.9589844 C 327.0315697 415.9789724 326.5309972 416.0251133 325.4472656 415.5488281 C 325.4318445 415.5420508 325.4140681 415.5269576 325.3984375 415.5195312 z "
         id="path4069-9" />
      <path
         style="fill:#000000;stroke:#000000;stroke-width:3.965597868;stroke-miterlimit:4;stroke-dasharray:none"
         d="m 221.9710083,524.1068115 h 216.1726379 c 0,0 0,0 0,0 v 4.9866886 c 0,0 0,0 0,0 h -216.1726379 c 0,0 0,0 0,0 v -4.9866886 c 0,0 0,0 0,0 z"
         id="rect4177" />
    </g>
    <text
       xml:space="preserve"
       style="font-style:normal;font-weight:normal;font-size:40px;line-height:125%;font-family:Sans;letter-spacing:0px;word-spacing:0px;fill:#000000;fill-opacity:1;stroke:none"
       x="44.086651"
       y="681.4834"
       id="text4234"
       sodipodi:linespacing="125%"><tspan
         sodipodi:role="line"
         id="tspan4236"
         x="44.086651"
         y="681.4834">hardware &amp; software design </tspan></text>
  </g>
</svg>
