<?xml version="1.0" encoding="UTF-8" standalone="no"?>
<!DOCTYPE svg PUBLIC "-//W3C//DTD SVG 1.1//EN"
 "http://www.w3.org/Graphics/SVG/1.1/DTD/svg11.dtd">
<!-- Generated by graphviz version 2.38.0 (20140413.2041)
 -->
<!-- Title: G Pages: 1 -->
<svg width="189pt" height="404pt"
 viewBox="0.00 0.00 189.23 404.00" xmlns="http://www.w3.org/2000/svg" xmlns:xlink="http://www.w3.org/1999/xlink">
<g id="graph0" class="graph" transform="scale(1 1) rotate(0) translate(4 400)">
<title>G</title>
<polygon fill="white" stroke="none" points="-4,4 -4,-400 185.232,-400 185.232,4 -4,4"/>
<!-- Client -->
<g id="node1" class="node"><title>Client</title>
<polygon fill="none" stroke="black" points="111.647,-396 57.6469,-396 57.6469,-360 111.647,-360 111.647,-396"/>
<text text-anchor="middle" x="84.6469" y="-374.3" font-family="Times,serif" font-size="14.00">Client</text>
</g>
<!-- graphql -->
<g id="node2" class="node"><title>graphql</title>
<ellipse fill="none" stroke="black" cx="84.6469" cy="-306" rx="37.8943" ry="18"/>
<text text-anchor="middle" x="84.6469" y="-302.3" font-family="Times,serif" font-size="14.00">graphql</text>
</g>
<!-- Client&#45;&gt;graphql -->
<g id="edge1" class="edge"><title>Client&#45;&gt;graphql</title>
<path fill="none" stroke="black" d="M84.6469,-349.665C84.6469,-344.687 84.6469,-339.491 84.6469,-334.507"/>
<polygon fill="black" stroke="black" points="81.147,-349.697 84.6469,-359.697 88.147,-349.697 81.147,-349.697"/>
<polygon fill="black" stroke="black" points="88.147,-334.104 84.6469,-324.104 81.147,-334.104 88.147,-334.104"/>
</g>
<!-- octopart -->
<g id="node3" class="node"><title>octopart</title>
<ellipse fill="none" stroke="black" cx="84.6469" cy="-162" rx="39.7935" ry="18"/>
<text text-anchor="middle" x="84.6469" y="-158.3" font-family="Times,serif" font-size="14.00">octopart</text>
</g>
<!-- graphql&#45;&gt;octopart -->
<g id="edge2" class="edge"><title>graphql&#45;&gt;octopart</title>
<path fill="none" stroke="black" d="M55.8126,-294.046C37.852,-285.539 16.2167,-271.819 5.64687,-252 -1.88229,-237.882 -1.88229,-230.118 5.64687,-216 14.3526,-199.676 30.5651,-187.49 46.0482,-178.946"/>
<polygon fill="black" stroke="black" points="47.7259,-182.019 55.0179,-174.333 44.5243,-175.794 47.7259,-182.019"/>
</g>
<!-- electro grammar -->
<g id="node4" class="node"><title>electro grammar</title>
<ellipse fill="none" stroke="black" cx="84.6469" cy="-234" rx="69.5877" ry="18"/>
<text text-anchor="middle" x="84.6469" y="-230.3" font-family="Times,serif" font-size="14.00">electro grammar</text>
</g>
<!-- graphql&#45;&gt;electro grammar -->
<g id="edge3" class="edge"><title>graphql&#45;&gt;electro grammar</title>
<path fill="none" stroke="black" d="M84.6469,-287.697C84.6469,-279.983 84.6469,-270.712 84.6469,-262.112"/>
<polygon fill="black" stroke="black" points="88.147,-262.104 84.6469,-252.104 81.147,-262.104 88.147,-262.104"/>
</g>
<!-- farnell -->
<g id="node5" class="node"><title>farnell</title>
<ellipse fill="none" stroke="black" cx="102.647" cy="-90" rx="33.5952" ry="18"/>
<text text-anchor="middle" x="102.647" y="-86.3" font-family="Times,serif" font-size="14.00">farnell</text>
</g>
<!-- octopart&#45;&gt;farnell -->
<g id="edge5" class="edge"><title>octopart&#45;&gt;farnell</title>
<path fill="none" stroke="black" d="M89.0042,-144.055C91.0083,-136.261 93.4355,-126.822 95.6837,-118.079"/>
<polygon fill="black" stroke="black" points="99.1039,-118.832 98.2046,-108.275 92.3244,-117.089 99.1039,-118.832"/>
</g>
<!-- electro grammar&#45;&gt;octopart -->
<g id="edge4" class="edge"><title>electro grammar&#45;&gt;octopart</title>
<path fill="none" stroke="black" d="M84.6469,-215.697C84.6469,-207.983 84.6469,-198.712 84.6469,-190.112"/>
<polygon fill="black" stroke="black" points="88.147,-190.104 84.6469,-180.104 81.147,-190.104 88.147,-190.104"/>
</g>
<!-- ... -->
<g id="node6" class="node"><title>...</title>
<ellipse fill="none" stroke="black" cx="142.647" cy="-18" rx="27" ry="18"/>
<text text-anchor="middle" x="142.647" y="-14.3" font-family="Times,serif" font-size="14.00">...</text>
</g>
<!-- farnell&#45;&gt;... -->
<g id="edge6" class="edge"><title>farnell&#45;&gt;...</title>
<path fill="none" stroke="black" d="M112.126,-72.411C116.978,-63.9208 122.984,-53.4099 128.382,-43.9643"/>
<polygon fill="black" stroke="black" points="131.588,-45.4071 133.511,-34.9881 125.511,-41.9341 131.588,-45.4071"/>
</g>
<!-- ...&#45;&gt;graphql -->
<g id="edge7" class="edge"><title>...&#45;&gt;graphql</title>
<path fill="none" stroke="black" d="M149.963,-35.4707C166.507,-75.3667 202.445,-179.25 163.647,-252 154.811,-268.568 138.243,-280.873 122.553,-289.434"/>
<polygon fill="black" stroke="black" points="120.809,-286.394 113.481,-294.046 123.982,-292.634 120.809,-286.394"/>
</g>
</g>
</svg>
