<?xml version="1.0" encoding="UTF-8" standalone="no"?>
<!DOCTYPE svg PUBLIC "-//W3C//DTD SVG 1.1//EN"
 "http://www.w3.org/Graphics/SVG/1.1/DTD/svg11.dtd">
<!-- Generated by graphviz version 2.38.0 (20140413.2041)
 -->
<!-- Title: G Pages: 1 -->
<svg width="318pt" height="278pt"
 viewBox="0.00 0.00 317.84 278.00" xmlns="http://www.w3.org/2000/svg" xmlns:xlink="http://www.w3.org/1999/xlink">
<g id="graph0" class="graph" transform="scale(1 1) rotate(0) translate(4 274)">
<title>G</title>
<polygon fill="white" stroke="none" points="-4,4 -4,-274 313.845,-274 313.845,4 -4,4"/>
<g id="clust1" class="cluster"><title>cluster0</title>
<polygon fill="none" stroke="black" points="117.845,-187 117.845,-262 253.845,-262 253.845,-187 117.845,-187"/>
<text text-anchor="middle" x="185.845" y="-246.8" font-family="Times,serif" font-size="14.00">Client</text>
</g>
<g id="clust2" class="cluster"><title>cluster1</title>
<polygon fill="none" stroke="black" points="138.845,-79 138.845,-154 232.845,-154 232.845,-79 138.845,-79"/>
<text text-anchor="middle" x="185.845" y="-138.8" font-family="Times,serif" font-size="14.00"> &#160;&#160;&#160;&#160;&#160;&#160;&#160;&#160;&#160;&#160;Server</text>
</g>
<!-- BOM Builder -->
<g id="node1" class="node"><title>BOM Builder</title>
<ellipse fill="none" stroke="black" cx="185.845" cy="-213" rx="59.5901" ry="18"/>
<text text-anchor="middle" x="185.845" y="-209.3" font-family="Times,serif" font-size="14.00">BOM Builder</text>
</g>
<!-- Partinfo -->
<g id="node2" class="node"><title>Partinfo</title>
<ellipse fill="none" stroke="black" cx="185.845" cy="-105" rx="38.9931" ry="18"/>
<text text-anchor="middle" x="185.845" y="-101.3" font-family="Times,serif" font-size="14.00">Partinfo</text>
</g>
<!-- BOM Builder&#45;&gt;Partinfo -->
<g id="edge1" class="edge"><title>BOM Builder&#45;&gt;Partinfo</title>
<path fill="none" stroke="black" d="M185.845,-194.969C185.845,-178.378 185.845,-152.883 185.845,-133.431"/>
<polygon fill="black" stroke="black" points="189.345,-133.341 185.845,-123.341 182.345,-133.341 189.345,-133.341"/>
<text text-anchor="middle" x="247.845" y="-165.8" font-family="Times,serif" font-size="14.00"> Graphql HTTP Query</text>
</g>
<!-- Octopart API -->
<g id="node3" class="node"><title>Octopart API</title>
<ellipse fill="none" stroke="black" cx="57.8449" cy="-18" rx="57.6901" ry="18"/>
<text text-anchor="middle" x="57.8449" y="-14.3" font-family="Times,serif" font-size="14.00">Octopart API</text>
</g>
<!-- Partinfo&#45;&gt;Octopart API -->
<g id="edge2" class="edge"><title>Partinfo&#45;&gt;Octopart API</title>
<path fill="none" stroke="black" d="M164.421,-89.7729C144.1,-76.2789 113.3,-55.8256 90.0276,-40.3713"/>
<polygon fill="black" stroke="black" points="91.7811,-37.3344 81.5144,-34.718 87.9087,-43.1657 91.7811,-37.3344"/>
<text text-anchor="middle" x="150.845" y="-57.8" font-family="Times,serif" font-size="14.00"> &#160;HTTP</text>
</g>
<!-- Farnell API -->
<g id="node4" class="node"><title>Farnell API</title>
<ellipse fill="none" stroke="black" cx="185.845" cy="-18" rx="51.9908" ry="18"/>
<text text-anchor="middle" x="185.845" y="-14.3" font-family="Times,serif" font-size="14.00">Farnell API</text>
</g>
<!-- Partinfo&#45;&gt;Farnell API -->
<g id="edge3" class="edge"><title>Partinfo&#45;&gt;Farnell API</title>
<path fill="none" stroke="black" d="M185.845,-86.799C185.845,-75.1626 185.845,-59.5479 185.845,-46.2368"/>
<polygon fill="black" stroke="black" points="189.345,-46.1754 185.845,-36.1754 182.345,-46.1755 189.345,-46.1754"/>
<text text-anchor="middle" x="206.845" y="-57.8" font-family="Times,serif" font-size="14.00"> &#160;HTTP</text>
</g>
<!-- ... -->
<g id="node5" class="node"><title>...</title>
<ellipse fill="none" stroke="black" cx="282.845" cy="-18" rx="27" ry="18"/>
<text text-anchor="middle" x="282.845" y="-14.3" font-family="Times,serif" font-size="14.00">...</text>
</g>
<!-- Partinfo&#45;&gt;... -->
<g id="edge4" class="edge"><title>Partinfo&#45;&gt;...</title>
<path fill="none" stroke="black" d="M205.972,-89.5396C214.179,-83.4256 223.647,-76.0887 231.845,-69 242.104,-60.1294 252.906,-49.7117 261.914,-40.6882"/>
<polygon fill="black" stroke="black" points="264.475,-43.0766 269.009,-33.5008 259.493,-38.1592 264.475,-43.0766"/>
</g>
</g>
</svg>
