<?xml version="1.0" encoding="UTF-8" standalone="no"?>
<!DOCTYPE svg PUBLIC "-//W3C//DTD SVG 1.1//EN"
 "http://www.w3.org/Graphics/SVG/1.1/DTD/svg11.dtd">
<!-- Generated by graphviz version 2.38.0 (20140413.2041)
 -->
<!-- Title: G Pages: 1 -->
<svg width="335pt" height="364pt"
 viewBox="0.00 0.00 334.90 364.00" xmlns="http://www.w3.org/2000/svg" xmlns:xlink="http://www.w3.org/1999/xlink">
<g id="graph0" class="graph" transform="scale(1 1) rotate(0) translate(4 360)">
<title>G</title>
<polygon fill="white" stroke="none" points="-4,4 -4,-360 330.896,-360 330.896,4 -4,4"/>
<g id="clust1" class="cluster"><title>cluster2</title>
</g>
<g id="clust2" class="cluster"><title>cluster0</title>
<polygon fill="none" stroke="black" points="9,-8 9,-204 119,-204 119,-8 9,-8"/>
</g>
<!-- Copper Clad Boards -->
<g id="node1" class="node"><title>Copper Clad Boards</title>
<polygon fill="none" stroke="black" points="128,-340 0,-340 0,-304 128,-304 128,-340"/>
<text text-anchor="middle" x="64" y="-318.3" font-family="Times,serif" font-size="14.00">Copper Clad Boards</text>
</g>
<!-- Drill -->
<g id="node9" class="node"><title>Drill</title>
<ellipse fill="none" stroke="black" cx="64" cy="-250" rx="27.0966" ry="18"/>
<text text-anchor="middle" x="64" y="-246.3" font-family="Times,serif" font-size="14.00">Drill</text>
</g>
<!-- Copper Clad Boards&#45;&gt;Drill -->
<g id="edge7" class="edge"><title>Copper Clad Boards&#45;&gt;Drill</title>
<path fill="none" stroke="black" d="M64,-303.697C64,-295.983 64,-286.712 64,-278.112"/>
<polygon fill="black" stroke="black" points="67.5001,-278.104 64,-268.104 60.5001,-278.104 67.5001,-278.104"/>
</g>
<!-- Etching -->
<g id="node2" class="node"><title>Etching</title>
<ellipse fill="none" stroke="black" cx="64" cy="-34" rx="38.1938" ry="18"/>
<text text-anchor="middle" x="64" y="-30.3" font-family="Times,serif" font-size="14.00">Etching</text>
</g>
<!-- Lamination -->
<g id="node3" class="node"><title>Lamination</title>
<ellipse fill="none" stroke="black" cx="219" cy="-322" rx="51.9908" ry="18"/>
<text text-anchor="middle" x="219" y="-318.3" font-family="Times,serif" font-size="14.00">Lamination</text>
</g>
<!-- Etching&#45;&gt;Lamination -->
<g id="edge1" class="edge"><title>Etching&#45;&gt;Lamination</title>
<path fill="none" stroke="black" d="M101.634,-38.0665C155.676,-43.2655 251.368,-55.6982 275,-80 348.77,-155.861 329.554,-219.849 303,-268 294.229,-283.904 278.456,-295.693 262.928,-304.061"/>
<polygon fill="black" stroke="black" points="261.242,-300.991 253.868,-308.598 264.376,-307.25 261.242,-300.991"/>
</g>
<!-- Plating &amp; Coating -->
<g id="node4" class="node"><title>Plating &amp; Coating</title>
<ellipse fill="none" stroke="black" cx="219" cy="-250" rx="75.2868" ry="18"/>
<text text-anchor="middle" x="219" y="-246.3" font-family="Times,serif" font-size="14.00">Plating &amp; Coating</text>
</g>
<!-- Lamination&#45;&gt;Plating &amp; Coating -->
<g id="edge2" class="edge"><title>Lamination&#45;&gt;Plating &amp; Coating</title>
<path fill="none" stroke="black" d="M219,-303.697C219,-295.983 219,-286.712 219,-278.112"/>
<polygon fill="black" stroke="black" points="222.5,-278.104 219,-268.104 215.5,-278.104 222.5,-278.104"/>
</g>
<!-- Solder Resist -->
<g id="node5" class="node"><title>Solder Resist</title>
<ellipse fill="none" stroke="black" cx="219" cy="-178" rx="57.6901" ry="18"/>
<text text-anchor="middle" x="219" y="-174.3" font-family="Times,serif" font-size="14.00">Solder Resist</text>
</g>
<!-- Plating &amp; Coating&#45;&gt;Solder Resist -->
<g id="edge3" class="edge"><title>Plating &amp; Coating&#45;&gt;Solder Resist</title>
<path fill="none" stroke="black" d="M219,-231.697C219,-223.983 219,-214.712 219,-206.112"/>
<polygon fill="black" stroke="black" points="222.5,-206.104 219,-196.104 215.5,-206.104 222.5,-206.104"/>
</g>
<!-- Silkscreen -->
<g id="node6" class="node"><title>Silkscreen</title>
<ellipse fill="none" stroke="black" cx="219" cy="-106" rx="47.3916" ry="18"/>
<text text-anchor="middle" x="219" y="-102.3" font-family="Times,serif" font-size="14.00">Silkscreen</text>
</g>
<!-- Solder Resist&#45;&gt;Silkscreen -->
<g id="edge4" class="edge"><title>Solder Resist&#45;&gt;Silkscreen</title>
<path fill="none" stroke="black" d="M219,-159.697C219,-151.983 219,-142.712 219,-134.112"/>
<polygon fill="black" stroke="black" points="222.5,-134.104 219,-124.104 215.5,-134.104 222.5,-134.104"/>
</g>
<!-- Patterning -->
<g id="node7" class="node"><title>Patterning</title>
<ellipse fill="none" stroke="black" cx="64" cy="-178" rx="46.5926" ry="18"/>
<text text-anchor="middle" x="64" y="-174.3" font-family="Times,serif" font-size="14.00">Patterning</text>
</g>
<!-- Exposure -->
<g id="node8" class="node"><title>Exposure</title>
<ellipse fill="none" stroke="black" cx="64" cy="-106" rx="44.393" ry="18"/>
<text text-anchor="middle" x="64" y="-102.3" font-family="Times,serif" font-size="14.00">Exposure</text>
</g>
<!-- Patterning&#45;&gt;Exposure -->
<g id="edge5" class="edge"><title>Patterning&#45;&gt;Exposure</title>
<path fill="none" stroke="black" d="M64,-159.697C64,-151.983 64,-142.712 64,-134.112"/>
<polygon fill="black" stroke="black" points="67.5001,-134.104 64,-124.104 60.5001,-134.104 67.5001,-134.104"/>
</g>
<!-- Exposure&#45;&gt;Etching -->
<g id="edge6" class="edge"><title>Exposure&#45;&gt;Etching</title>
<path fill="none" stroke="black" d="M64,-87.6966C64,-79.9827 64,-70.7125 64,-62.1124"/>
<polygon fill="black" stroke="black" points="67.5001,-62.1043 64,-52.1043 60.5001,-62.1044 67.5001,-62.1043"/>
</g>
<!-- Drill&#45;&gt;Patterning -->
<g id="edge8" class="edge"><title>Drill&#45;&gt;Patterning</title>
<path fill="none" stroke="black" d="M64,-231.697C64,-223.983 64,-214.712 64,-206.112"/>
<polygon fill="black" stroke="black" points="67.5001,-206.104 64,-196.104 60.5001,-206.104 67.5001,-206.104"/>
</g>
</g>
</svg>
